<svg class="svg-icon icon-theme" aria-hidden="true" focusable="false" width="160" height="18" viewBox="0 0 160 18" fill="none" xmlns="http://www.w3.org/2000/svg"><path d="M160 17.6332L153.126 0.273489H145.224L138.351 17.6334H142.428L143.749 14.2973C145.373 15.2222 147.202 15.7066 149.062 15.7044C150.994 15.7065 152.891 15.1835 154.559 14.1893L155.923 17.633L160 17.6332ZM153.256 10.9001C152.018 11.7545 150.557 12.21 149.062 12.2078C147.64 12.21 146.247 11.7979 145.047 11.02L148.293 2.81928C148.362 2.63771 148.483 2.4816 148.64 2.37148C148.797 2.26136 148.983 2.20238 149.174 2.20231C149.365 2.20233 149.551 2.26128 149.708 2.37142C149.865 2.48155 149.986 2.6377 150.055 2.81928L153.256 10.9001ZM124.964 8.9999C124.964 5.97082 127.57 3.51494 130.785 3.51494C131.74 3.50285 132.684 3.72577 133.537 4.16483C134.39 4.60389 135.126 5.24616 135.684 6.03727H139.806C138.506 2.52233 134.959 0 130.785 0C125.509 0 121.234 4.02938 121.234 8.9999C121.234 13.9704 125.509 18 130.785 18C134.959 18 138.505 15.4777 139.805 11.9627H135.684C135.126 12.7539 134.39 13.3962 133.537 13.8353C132.684 14.2743 131.74 14.4972 130.785 14.4851C127.57 14.4851 124.964 12.0292 124.964 8.9997M123.022 17.6332L116.148 0.273489H108.246L101.372 17.6332H105.45L106.771 14.2973C108.395 15.2222 110.224 15.7066 112.084 15.7044C114.015 15.7065 115.913 15.1835 117.58 14.1893L118.944 17.633L123.022 17.6332ZM116.278 10.9001C115.04 11.7544 113.579 12.2099 112.084 12.2078C110.662 12.21 109.269 11.7979 108.069 11.02L111.315 2.81928C111.384 2.63771 111.505 2.4816 111.662 2.37148C111.819 2.26136 112.005 2.20238 112.196 2.20231C112.387 2.20231 112.573 2.26126 112.73 2.3714C112.888 2.48153 113.009 2.63768 113.077 2.81928L116.278 10.9001ZM97.0126 17.6086H100.855V0.293207H93.938L90.7573 8.03727H90.7561C90.6816 8.22125 90.5548 8.37828 90.3921 8.48816C90.2294 8.59803 90.0382 8.65574 89.8431 8.65385C89.6482 8.65551 89.4572 8.59771 89.2947 8.48785C89.1322 8.37799 89.0055 8.22108 88.931 8.03727H88.9297L85.7501 0.293207H79.1042V17.6086H82.9463V3.78074L85.4611 9.86533C86.1733 11.426 87.7061 12.5407 89.8186 12.5407C91.8073 12.5407 93.4035 11.593 94.1704 9.97732L97.011 3.09573L97.0126 17.6086ZM78.6808 17.6086L75.081 10.7114C75.7992 10.176 76.3834 9.47505 76.786 8.66566C77.1886 7.85627 77.3982 6.9613 77.3977 6.05363C77.3971 5.29434 77.25 4.5426 76.9647 3.84133C76.6794 3.14007 76.2615 2.50301 75.7349 1.96653C75.2083 1.43005 74.5834 1.00465 73.8957 0.714637C73.208 0.424618 72.4711 0.275654 71.727 0.27625H59.1996V17.6084H62.9799V11.831H71.3838L74.3983 17.6084L78.6808 17.6086ZM73.618 6.05383C73.6175 6.56504 73.4181 7.05512 73.0635 7.41628C72.709 7.77745 72.2283 7.98011 71.7273 7.97969H62.9809V4.12758H71.7277C72.2286 4.12726 72.7092 4.32997 73.0636 4.69112C73.4181 5.05227 73.6175 5.5423 73.618 6.05344M54.7387 17.6332H58.816L51.9422 0.273292H44.0408L37.1673 17.6332H41.2446L42.5654 14.2972C44.1893 15.2219 46.0184 15.7064 47.8781 15.7042C49.8094 15.7062 51.7064 15.1833 53.3741 14.1893L54.7387 17.6332ZM52.0721 10.9001C50.8337 11.7544 49.3725 12.21 47.8777 12.2078C46.4559 12.21 45.063 11.7979 43.8628 11.02L47.1092 2.81928C47.1778 2.6377 47.2988 2.48157 47.456 2.37145C47.6133 2.26132 47.7996 2.20236 47.9903 2.20231C48.1811 2.20234 48.3673 2.2613 48.5246 2.37143C48.6818 2.48156 48.8027 2.6377 48.8713 2.81928L52.0721 10.9001ZM33.1136 17.636H36.8941V0.276053H33.1136V7.99132H22.6661V0.276053H18.885V17.636H22.6661V11.8494H33.1136V17.636ZM18.5268 6.0629C18.5268 4.52819 17.9293 3.05633 16.8658 1.97112C15.8023 0.885913 14.3599 0.27625 12.8558 0.27625H0V17.636H3.78049V11.8494H12.8556C14.3596 11.8494 15.802 11.2397 16.8655 10.1546C17.929 9.06939 18.5265 7.59758 18.5266 6.0629M14.7459 6.0629C14.7458 6.57442 14.5467 7.06497 14.1922 7.42665C13.8377 7.78833 13.3569 7.99152 12.8556 7.99152H3.78049V4.1331H12.8556C13.1039 4.1331 13.3497 4.183 13.5791 4.27996C13.8085 4.37691 14.0169 4.51902 14.1924 4.69817C14.3679 4.87732 14.5071 5.09 14.6021 5.32406C14.6971 5.55812 14.7459 5.80898 14.7459 6.06231" fill="#123742"></path></svg>